<?xml version="1.0" encoding="UTF-8"?>
<svg id="Layer_8" data-name="Layer 8" xmlns="http://www.w3.org/2000/svg" viewBox="0 0 512 512">
  <defs>
    <style>
      .cls-1, .cls-2 {
        stroke-linecap: round;
      }

      .cls-1, .cls-2, .cls-3 {
        fill: none;
        stroke-linejoin: round;
        stroke-width: 10px;
      }

      .cls-1, .cls-3 {
        stroke: #000;
      }

      .cls-2 {
        stroke: #518df1;
      }
    </style>
  </defs>
  <g>
    <path class="cls-2" d="M191,376.56s31.7,19.39,63.67,19.39,64.28-17.94,64.28-17.94"/>
    <line class="cls-2" x1="202.18" y1="388.84" x2="196.9" y2="411.77"/>
    <line class="cls-2" x1="226.7" y1="394.34" x2="223.72" y2="417.96"/>
    <line class="cls-2" x1="255.82" y1="397.44" x2="255.93" y2="423"/>
    <line class="cls-2" x1="282.53" y1="393.2" x2="284.93" y2="417.96"/>
    <line class="cls-2" x1="306.48" y1="388.27" x2="312.1" y2="413.03"/>
  </g>
  <g>
    <path class="cls-3" d="M254.93,61.48c54.25,0,114.46,34.39,108.27,129.3,29.21-4.01,10.57,64.28-13.07,72.21-8.88,45.16-55.35,93.48-95.21,93.48s-86.32-48.31-95.21-93.48c-23.64-7.93-42.28-76.23-13.07-72.21-6.19-94.91,54.03-129.3,108.27-129.3Z"/>
    <path class="cls-1" d="M315.23,325.57c-2.49,42.07,3.69,75.43,34.98,90.56,31.29,15.13,45.39,11.35,58.11,34.39"/>
    <path class="cls-1" d="M194.72,325.57c2.49,42.07-3.69,75.43-34.98,90.56-31.29,15.13-45.39,11.35-58.11,34.39"/>
  </g>
</svg>