<?xml version="1.0" encoding="UTF-8"?>
<svg id="Layer_4" data-name="Layer 4" xmlns="http://www.w3.org/2000/svg" viewBox="0 0 512 512">
  <defs>
    <style>
      .cls-1 {
        stroke: #000;
      }

      .cls-1, .cls-2, .cls-3, .cls-4 {
        fill: none;
        stroke-linejoin: round;
        stroke-width: 10px;
      }

      .cls-1, .cls-3, .cls-4 {
        stroke-linecap: round;
      }

      .cls-2 {
        stroke-linecap: square;
      }

      .cls-2, .cls-4 {
        stroke: #518df1;
      }

      .cls-3 {
        stroke: #030004;
      }
    </style>
  </defs>
  <g>
    <path class="cls-2" d="M167.71,304.56s42.65,16.59,88.18,16.21c45.28-.38,83.46-17.2,83.46-17.2"/>
    <line class="cls-4" x1="322.72" y1="313.89" x2="325.47" y2="333.15"/>
    <line class="cls-4" x1="189.07" y1="313.89" x2="186.32" y2="333.15"/>
    <line class="cls-4" x1="291.26" y1="318.36" x2="291.94" y2="341.23"/>
    <line class="cls-4" x1="220.53" y1="318.36" x2="219.85" y2="341.23"/>
    <line class="cls-4" x1="255.89" y1="320.77" x2="255.89" y2="343.81"/>
  </g>
  <g>
    <path class="cls-3" d="M385.88,450.81c.86-43.33-22.7-84.94-32.15-114.17-13.16-40.68-9.63-103.85,16.51-145.11"/>
    <path class="cls-3" d="M125.91,450.81c-.86-43.33,22.7-84.94,32.15-114.17,13.16-40.68,9.63-103.85-16.51-145.11"/>
    <path class="cls-3" d="M427.66,221.45c-.12-44.2-15.87-87.23-57.77-110.04-26.11-14.21-59.89-19.89-57.43-50.55"/>
    <path class="cls-3" d="M84.13,221.45c.12-44.2,15.87-87.23,57.77-110.04,26.11-14.21,59.89-19.89,57.43-50.55"/>
    <line class="cls-1" x1="255.89" y1="398.66" x2="256.08" y2="406.68"/>
  </g>
</svg>